<svg width="96" height="97" viewBox="0 0 96 97" fill="none" xmlns="http://www.w3.org/2000/svg">
<path d="M52.5 27.5V60.5C52.505 65.2724 54.403 69.8479 57.7776 73.2224C61.1521 76.597 65.7276 78.495 70.5 78.5C71.2956 78.5 72.0587 78.1839 72.6213 77.6213C73.1839 77.0587 73.5 76.2957 73.5 75.5C73.5 74.7043 73.1839 73.9413 72.6213 73.3787C72.0587 72.8161 71.2956 72.5 70.5 72.5C67.3174 72.5 64.2652 71.2357 62.0147 68.9853C59.7643 66.7348 58.5 63.6826 58.5 60.5V57.5H81C82.5913 57.5 84.1174 56.8679 85.2426 55.7426C86.3679 54.6174 87 53.0913 87 51.5V27.5C87 25.9087 86.3679 24.3826 85.2426 23.2574C84.1174 22.1321 82.5913 21.5 81 21.5H58.5C56.9087 21.5 55.3826 22.1321 54.2574 23.2574C53.1321 24.3826 52.5 25.9087 52.5 27.5ZM15 21.5H37.5C39.0913 21.5 40.6174 22.1321 41.7426 23.2574C42.8679 24.3826 43.5 25.9087 43.5 27.5V51.5C43.5 53.0913 42.8679 54.6174 41.7426 55.7426C40.6174 56.8679 39.0913 57.5 37.5 57.5H15V60.5C15 63.6826 16.2643 66.7348 18.5147 68.9853C20.7652 71.2357 23.8174 72.5 27 72.5C27.7957 72.5 28.5587 72.8161 29.1213 73.3787C29.6839 73.9413 30 74.7043 30 75.5C30 76.2957 29.6839 77.0587 29.1213 77.6213C28.5587 78.1839 27.7957 78.5 27 78.5C22.2276 78.495 17.6521 76.597 14.2776 73.2224C10.903 69.8479 9.00497 65.2724 9 60.5V27.5C9 25.9087 9.63214 24.3826 10.7574 23.2574C11.8826 22.1321 13.4087 21.5 15 21.5Z" fill="#7351BE"/>
</svg>
