<svg width="44" height="44" viewBox="0 0 44 44" fill="none" xmlns="http://www.w3.org/2000/svg">
<path d="M0 11.7333C0 5.25319 5.25319 0 11.7333 0H32.2667C38.7468 0 44 5.25319 44 11.7333V32.2667C44 38.7468 38.7468 44 32.2667 44H11.7333C5.25319 44 0 38.7468 0 32.2667V11.7333Z" fill="#EEE9F7"/>
<path d="M29.2617 9.90793L23.7075 6.81445C22.6452 6.22177 21.3249 6.22177 20.2474 6.81445L9.03267 13.0592C7.98556 13.6374 7.33301 14.7216 7.33301 15.878V26.3872C7.33301 28.0641 9.24513 29.1048 10.7627 28.2664L21.9774 22.0216L17.273 19.4052C16.15 18.7691 16.15 17.2224 17.273 16.5864L29.2617 9.90793Z" fill="#5026AE"/>
<path d="M10.869 15.7913L17.3187 19.3763C16.1957 18.7402 16.1957 17.1935 17.3187 16.5574L29.277 9.89346L23.7228 6.79998C22.6605 6.2073 21.3402 6.2073 20.2627 6.79998L10.869 12.0329C9.35148 12.8857 9.35148 14.9529 10.869 15.7913Z" fill="#8567C6"/>
<path d="M14.7376 34.0919L20.2919 37.1854C21.3542 37.7781 22.6744 37.7781 23.7519 37.1854L34.9667 30.9406C36.0138 30.3624 36.6663 29.2782 36.6663 28.1218V17.6126C36.6663 15.9358 34.7542 14.895 33.2367 15.7334L22.0219 21.9782L26.7263 24.5946C27.8493 25.2307 27.8493 26.7774 26.7263 27.4135L14.7376 34.0919Z" fill="#5026AE"/>
<path d="M33.1456 28.2085L26.696 24.6236C27.819 25.2596 27.819 26.8063 26.696 27.4424L14.7376 34.1064L20.2919 37.1999C21.3542 37.7925 22.6744 37.7925 23.7519 37.1999L33.1456 31.967C34.648 31.1141 34.648 29.0469 33.1456 28.2085Z" fill="#8567C6"/>
</svg>
