<svg width="48" height="40" viewBox="0 0 48 40" fill="none" xmlns="http://www.w3.org/2000/svg">
    <g id="Vector" filter="url(#filter0_d_1012_2398)">
        <path
            d="M43.3887 20C43.3887 15.8858 41.7543 11.9401 38.8451 9.03086C35.9359 6.12167 31.9902 4.48731 27.876 4.4873C23.7618 4.4873 19.8161 6.12167 16.9069 9.03086C13.9977 11.9401 12.3633 15.8858 12.3633 20H17.2111C18.8175 20 20.0703 18.6538 20.6587 17.159C21.045 16.1776 21.6312 15.2757 22.3914 14.5154C23.846 13.0608 25.8189 12.2436 27.876 12.2436C29.9331 12.2436 31.906 13.0608 33.3606 14.5154C34.8152 15.97 35.6323 17.9429 35.6323 20H43.3887Z"
            fill="url(#paint0_linear_1012_2398)" />
        <path
            d="M34.4538 25.9364C35.2334 24.0543 35.6347 22.0371 35.6347 20H43.3902C43.3902 28.5674 36.4449 35.5126 27.8775 35.5126C26.5358 35.5126 25.2338 35.3423 23.9922 35.0221C24.6947 34.8411 25.3852 34.6106 26.0584 34.3318C27.9405 33.5522 29.6506 32.4096 31.0911 30.9691C32.5316 29.5286 33.6743 27.8185 34.4538 25.9364Z"
            fill="#CBBEE7" />
        <path
            d="M4.60938 20C4.60937 22.0372 5.01062 24.0544 5.79021 25.9365C6.5698 27.8186 7.71245 29.5287 9.15294 30.9692C10.5934 32.4096 12.3035 33.5523 14.1856 34.3319C16.0677 35.1115 18.0849 35.5127 20.1221 35.5127C22.1592 35.5127 24.1763 35.1114 26.0584 34.3318C27.9405 33.5522 29.6506 32.4096 31.0911 30.9691C32.5316 29.5286 33.6743 27.8185 34.4538 25.9364C35.2334 24.0543 35.6347 22.0371 35.6347 20H30.787C29.1806 20 27.9278 21.3462 27.3394 22.8409C27.3227 22.8835 27.3055 22.9259 27.288 22.9683C26.8982 23.9093 26.3269 24.7644 25.6066 25.4846C24.8864 26.2048 24.0313 26.7762 23.0903 27.166C22.1493 27.5558 21.1407 27.7564 20.1221 27.7564C19.1035 27.7564 18.0949 27.5558 17.1539 27.166C16.2128 26.7762 15.3578 26.2048 14.6375 25.4846C13.9172 24.7644 13.3459 23.9093 12.9561 22.9683C12.5663 22.0272 12.3657 21.0186 12.3657 20H4.60938Z"
            fill="url(#paint1_linear_1012_2398)" />
        <path
            d="M4.60938 20C4.60938 11.4325 11.5546 4.4873 20.122 4.4873C21.4634 4.4873 22.765 4.65755 24.0065 4.97763C21.3426 5.66387 18.8852 7.05264 16.9069 9.03086C13.9977 11.9401 12.3633 15.8858 12.3633 20L4.60938 20Z"
            fill="#623CB6" />
    </g>
    <defs>
        <filter id="filter0_d_1012_2398" x="0.609375" y="0.487305" width="46.7812" height="39.0254"
            filterUnits="userSpaceOnUse" color-interpolation-filters="sRGB">
            <feFlood flood-opacity="0" result="BackgroundImageFix" />
            <feColorMatrix in="SourceAlpha" type="matrix" values="0 0 0 0 0 0 0 0 0 0 0 0 0 0 0 0 0 0 127 0"
                result="hardAlpha" />
            <feOffset />
            <feGaussianBlur stdDeviation="2" />
            <feComposite in2="hardAlpha" operator="out" />
            <feColorMatrix type="matrix" values="0 0 0 0 0 0 0 0 0 0 0 0 0 0 0 0 0 0 0.25 0" />
            <feBlend mode="normal" in2="BackgroundImageFix" result="effect1_dropShadow_1012_2398" />
            <feBlend mode="normal" in="SourceGraphic" in2="effect1_dropShadow_1012_2398" result="shape" />
        </filter>
        <linearGradient id="paint0_linear_1012_2398" x1="43.3902" y1="20" x2="4.60938" y2="20"
            gradientUnits="userSpaceOnUse">
            <stop stop-color="#8567C6" />
            <stop offset="1" stop-color="#301768" />
        </linearGradient>
        <linearGradient id="paint1_linear_1012_2398" x1="4.60938" y1="20.0001" x2="43.3902" y2="20.0001"
            gradientUnits="userSpaceOnUse">
            <stop stop-color="#191918" />
            <stop offset="0.691789" stop-color="#401E8B" />
        </linearGradient>
    </defs>
</svg>